# xmcd
#
# Track frame offsets:
#	150
#	19279
#	35219
#	46048
#	60935
#	78045
#	94577
#	108614
#	123141
#	132110
#	152862
#	168234
#	178366
#	193723
#	209460
#	227004
#	250726
#
# Disc length: 3559
#
# Revision: 2
# Processed by: cddbd v1.5.1PL0 Copyright (c) Steve Scherf et al.
# Submitted via: audiograbber 1.81.02
# Normalized: r1:TRMNUM
#
DISCID=dc0de511
DTITLE=Steve Earle - Transcendental Blues
DYEAR=1900
DGENRE=
TTITLE0=Transcendental blues
TTITLE1=Everybody's in love with me
TTITLE2=Another town
TTITLE3=I can't wait
TTITLE4=The boy who never cried
TTITLE5=Steve's last ramble
TTITLE6=The Galway girl
TTITLE7=Lonelier than this
TTITLE8=Wherever I go
TTITLE9=When I fall
TTITLE10=I don't want to lose you
TTITLE11=Halo aroung the moon
TTITLE12=Until the day I die
TTITLE13=All of my life
TTITLE14=Over yonder (Jonathans song) 
TTITLE15=Copperhead Road - The Galway girl
TTITLE16=Steve's last ramble/ I feel alright
EXTD=
EXTT0=
EXTT1=
EXTT2=
EXTT3=
EXTT4=
EXTT5=
EXTT6=
EXTT7=
EXTT8=
EXTT9=
EXTT10=
EXTT11=
EXTT12=
EXTT13=
EXTT14=
EXTT15=
EXTT16=
PLAYORDER=
